# This file uses centimeters as units for non-parametric coordinates.

mtllib block.mtl
g default
v -58.000597 35.151489 43.615075
v -57.189480 35.151489 43.615075
v -58.000597 38.022201 42.560571
v -57.189480 38.022201 42.560571
v -58.000597 31.071585 23.638682
v -57.189480 31.071585 23.638682
v -58.014539 28.278430 24.751445
v -57.175538 28.278351 24.751399
v -58.000597 30.904573 43.615074
v -57.189480 30.904573 43.615074
v -58.006977 27.981475 42.425839
v -57.183088 27.981512 42.425974
v -58.000597 34.984474 23.638691
v -57.189480 34.984474 23.638691
v -58.000597 37.855189 24.693187
v -57.189480 37.855189 24.693187
v -58.000597 34.657473 33.400663
v -58.012967 31.388125 34.227733
v -57.177116 31.388024 34.227617
v -57.189480 34.657473 33.400663
v -57.988529 30.087745 29.962261
v -58.000597 33.025611 28.958195
v -57.189480 33.025611 28.958195
v -57.201541 30.087816 29.962307
v -58.000597 36.003365 37.064625
v -58.000597 33.132652 38.119130
v -57.189480 33.132652 38.119130
v -57.189480 36.003365 37.064625
v -57.189480 33.594351 27.423066
v -57.189480 36.465060 28.477570
v -58.000597 36.465060 28.477570
v -58.000597 33.594351 27.423066
v -57.193756 30.140666 37.475832
v -57.189480 32.969508 38.422814
v -58.000597 32.969508 38.422814
v -57.996327 30.140678 37.475844
v -56.642997 33.134604 38.124562
v -56.642997 35.153445 43.620501
v -56.642997 36.005319 37.070062
v -56.642997 38.024158 42.566001
v -56.642997 30.906528 43.620505
v -56.636605 27.983467 42.431410
v -56.647273 30.142619 37.481259
v -56.642997 32.971458 38.428242
v -56.642997 33.027569 28.963630
v -56.655065 30.089774 29.967742
v -56.629055 28.280304 24.756834
v -56.642997 31.073536 23.644117
v -56.630639 31.389981 34.233047
v -56.642997 34.659427 33.406095
v -56.642997 33.596305 27.428495
v -56.642997 36.467019 28.483004
v -56.642997 34.986432 23.644121
v -56.642997 37.857149 24.698622
v -57.189480 43.959121 42.560576
v -57.189480 43.959100 37.064628
v -56.642997 43.959122 42.566008
v -56.642997 43.959101 37.070060
v -57.189480 43.959083 33.400666
v -56.642997 43.959088 33.406101
v -57.189480 43.959118 24.693188
v -57.189480 43.959102 28.477571
v -56.642997 43.959102 28.483008
v -56.642997 43.959119 24.698620
v -57.189480 31.071585 18.981238
v -57.175538 28.278352 18.981247
v -56.642997 31.073536 18.981239
v -56.629055 28.280306 18.981251
v -57.189480 33.025613 18.981291
v -56.642997 33.027565 18.981293
v -57.189480 33.594356 18.981276
v -57.189480 34.984474 18.981239
v -56.642997 34.986432 18.981239
v -56.642997 33.596307 18.981274
v -57.189480 37.855187 18.981248
v -56.642997 37.857144 18.981246
v -57.189480 43.959116 18.981249
v -56.642997 43.959116 18.981249
v -57.189480 33.132651 49.245520
v -57.189480 35.151489 49.245571
v -56.642997 33.134604 49.245519
v -56.642997 35.153445 49.245569
v -57.189480 38.022201 49.245567
v -56.642997 38.024158 49.245560
v -57.189480 30.904570 49.245571
v -57.183088 27.981508 49.245558
v -56.636605 27.983465 49.245561
v -56.642997 30.906527 49.245569
v -57.189480 32.969506 49.245518
v -56.642997 32.971457 49.245518
v -56.642997 43.959119 49.245563
v -57.189480 43.959119 49.245563
v -57.183088 21.698003 42.425972
v -57.193756 21.698028 37.475831
v -56.647273 21.698025 37.481259
v -56.636605 21.698005 42.431409
v -57.175538 21.698008 24.751397
v -57.201541 21.698027 29.962307
v -56.629055 21.698010 24.756834
v -56.655065 21.698025 29.967740
v -57.177116 21.698040 34.227614
v -56.630639 21.698038 34.233050
v -57.175538 21.698007 18.981248
v -56.629055 21.698010 18.981249
v -56.636605 21.698006 49.245563
v -57.183088 21.698003 49.245559
vt 0.360362 0.237050
vt 0.770131 0.155265
vt 0.796282 0.186696
vt 0.235827 0.100317
vt 0.736108 0.236760
vt 0.185767 0.040140
vt 0.541394 0.033263
vt 0.589112 0.359063
vt 0.564246 0.327478
vt 0.551088 0.479010
vt 0.420539 0.186990
vt 0.709958 0.205330
vt 0.183173 0.636568
vt 0.155449 0.563365
vt 0.193685 0.548884
vt 0.221409 0.622087
vt 0.362757 0.252901
vt 0.451281 0.271327
vt 0.679210 0.120994
vt 0.720995 0.126817
vt 0.459464 0.199593
vt 0.671031 0.192730
vt 0.673586 0.626528
vt 0.455847 0.000020
vt 0.674662 0.392303
vt 0.634384 0.385274
vt 0.710105 0.200723
vt 0.314982 0.195470
vt 0.126398 0.637136
vt 0.087161 0.621630
vt 0.115364 0.555165
vt 0.153309 0.567447
vt 0.503663 0.422537
vt 0.483151 0.081719
vt 0.620087 0.279308
vt 0.152794 0.440910
vt 0.113654 0.454726
vt 0.088767 0.385305
vt 0.125961 0.370057
vt 0.647353 0.310605
vt 0.465790 0.376494
vt 0.779055 0.753289
vt 0.175203 0.500082
vt 0.131605 0.511574
vt 0.663703 0.238668
vt 0.695993 0.270137
vt 0.198710 0.434025
vt 0.160192 0.420311
vt 0.178270 0.369534
vt 0.216789 0.383248
vt 0.446577 0.053116
vt 0.683928 0.339205
vt 0.639112 0.585095
vt 0.643650 0.332176
vt 0.622647 0.629995
vt 0.784490 0.076598
vt 0.608788 0.605738
vt 0.183925 0.711767
vt 0.820718 0.828753
vt 0.864972 0.226465
vt 0.773976 0.771499
vt 0.300016 0.547821
vt 0.649738 0.657180
vt 0.222302 0.711383
vt 0.582568 0.589777
vt 0.724892 0.042091
vt 0.560237 0.556897
vt 0.127150 0.712335
vt 0.431389 0.437952
vt 0.573350 0.136175
vt 0.389799 0.386069
vt 0.003134 0.622471
vt 0.602055 0.609332
vt 0.154755 0.712058
vt 0.313593 0.320097
vt 0.488111 0.283399
vt 0.269890 0.265399
vt 0.001468 0.455848
vt 0.148112 0.153548
vt 0.557914 0.412950
vt 0.126776 0.122052
vt 0.087996 0.308094
vt 0.580522 0.426039
vt 0.108336 0.103547
vt 0.354077 0.360258
vt 0.002038 0.512870
vt 0.855295 0.863450
vt 0.299526 0.498839
vt 0.097812 0.103337
vt 0.603186 0.439161
vt 0.089850 0.084997
vt 0.159064 0.307384
vt 0.636401 0.458390
vt 0.062760 0.057812
vt 0.937468 0.945909
vt 0.770635 0.389405
vt 0.906878 0.904863
vt 0.298363 0.382433
vt 0.710940 0.708244
vt 0.909752 0.149120
vt 0.991372 1.000000
vt 0.297600 0.306000
vt 0.210210 0.215863
vt 0.000000 0.308973
vt 0.500921 0.497375
vt 0.652192 0.000000
vt 0.436615 0.432846
vt 0.004045 0.713566
vt 0.088072 0.712726
vt 0.000772 0.386184
vt 0.215385 0.210706
vt 0.153268 0.148372
vt 0.359303 0.355153
vt 0.002472 0.556294
vt 0.318820 0.314991
vt 0.654932 0.652041
vt 0.301644 0.710590
vt 0.300751 0.621294
vt 0.156936 0.712036
vt 0.607249 0.604193
vt 0.587762 0.584638
vt 0.627840 0.624856
vt 0.216025 0.306815
vt 0.996547 0.994843
vt 0.942592 0.940700
vt 0.151460 0.307460
vt 0.102969 0.098161
vt 0.177648 0.307198
vt 0.125338 0.307721
vt 0.860418 0.858242
vt 0.298869 0.433024
vt 0.825841 0.823545
vt 0.606510 0.078902
vt 0.495746 0.502532
vt 0.555044 0.562036
vt 0.264664 0.270505
vt 0.449460 0.350161
vt 0.525595 0.394239
vt 0.551591 0.173757
vt 0.384573 0.391175
vt 0.523018 0.223108
vt 0.841062 0.109351
vt 0.705765 0.713402
vt 0.768852 0.776707
vt 0.603595 0.610877
vt 0.782603 0.075505
vt 0.758712 0.061672
vt 0.807848 0.090121
vt 0.707023 0.499278
vt 0.000000 0.005184
vt 0.005175 0.000026
vt 0.057603 0.062987
vt 0.745285 0.433190
vt 0.103180 0.108723
vt 0.587103 0.429848
vt 0.084694 0.090173
vt 0.121620 0.127227
vt 0.803612 0.332445
vt 0.901754 0.910071
vt 0.828156 0.290053
vt 0.616777 0.575206
vt 0.630776 0.592031
vt 0.144058 0.006957
vt 0.725875 0.706327
vt 0.457200 0.383642
vt 0.427621 0.347738
vt 0.354421 0.259836
vt 0.665250 0.633464
vt 0.177431 0.047075
vt 0.253638 0.138685
vt 0.495573 0.429265
vt 0.568319 0.516965
vt 0.691401 0.664894
vt 0.381336 0.292325
vt 0.542466 0.486184
vt 0.227491 0.107252
vt 0.434509 0.122184
vt 0.734211 0.699392
vt 0.625113 0.568270
vt 0.486855 0.060148
vt 0.466793 0.153656
vt 0.435869 0.340876
vt 0.496124 0.007051
vt 0.394391 0.155557
vt 0.576655 0.510029
vt 0.510414 0.113017
vt 0.699737 0.657958
vt 0.389804 0.285281
vt 0.566256 0.064850
vt 0.312035 0.191927
vt 0.420392 0.191596
vt 0.409495 0.265502
vt 0.770719 0.760225
vt 0.152394 0.000022
vt 0.303698 0.198862
vt 0.306646 0.202405
vt 0.261975 0.131750
vt 0.334214 0.205617
vn 0.000000 0.344805 0.938674
vn 0.000000 0.344805 0.938674
vn 0.000000 0.344805 0.938674
vn 0.000000 0.344805 0.938674
vn 0.000000 0.938674 -0.344805
vn 0.000000 0.938674 -0.344805
vn 0.000000 0.938674 -0.344805
vn 0.000000 0.938674 -0.344805
vn -0.000044 -0.370089 -0.928996
vn -0.000044 -0.370089 -0.928996
vn -0.000044 -0.370089 -0.928996
vn -0.000044 -0.370089 -0.928996
vn 0.000000 -0.938674 0.344805
vn 0.000000 -0.938674 0.344805
vn 0.000000 -0.938674 0.344805
vn 0.000000 -0.938674 0.344805
vn 1.000000 0.000000 -0.000000
vn 0.999999 0.001075 0.000347
vn 1.000000 0.000942 0.000304
vn 1.000000 0.000000 -0.000000
vn -1.000000 0.000943 0.000305
vn -0.999999 0.001076 0.000348
vn -1.000000 0.000000 0.000000
vn -1.000000 0.000000 0.000000
vn -0.000068 -0.376830 0.926282
vn -0.000068 -0.376830 0.926282
vn -0.000068 -0.376830 0.926282
vn -0.000068 -0.376830 0.926282
vn 0.000044 -0.916597 -0.399812
vn 0.000044 -0.916597 -0.399812
vn 0.000044 -0.916597 -0.399812
vn 0.000044 -0.916597 -0.399812
vn 0.000000 0.344803 -0.938675
vn 0.000000 0.344803 -0.938675
vn 0.000000 0.344803 -0.938675
vn 0.000000 0.344803 -0.938675
vn 0.000000 0.929213 0.369543
vn 0.000000 0.929213 0.369543
vn 0.000000 0.929213 0.369543
vn 0.000000 0.929213 0.369543
vn 0.999999 0.000657 -0.000778
vn 0.999999 0.000657 -0.000778
vn 0.999999 0.000657 -0.000778
vn 0.999999 0.000657 -0.000778
vn -1.000000 0.000655 -0.000777
vn -1.000000 0.000655 -0.000777
vn -1.000000 0.000655 -0.000777
vn -1.000000 0.000655 -0.000777
vn -0.999997 0.001095 0.002079
vn -1.000000 0.000132 -0.000402
vn -1.000000 0.000254 -0.000088
vn -0.999997 0.001095 0.002079
vn -0.000005 -0.944670 0.328022
vn -0.000005 -0.944670 0.328022
vn -0.000005 -0.950163 0.311754
vn -0.000005 -0.950163 0.311754
vn 1.000000 0.000253 -0.000087
vn 1.000000 0.000131 -0.000401
vn 0.999997 0.001095 0.002079
vn 0.999997 0.001095 0.002079
vn 0.000000 0.938674 -0.344805
vn 0.000000 0.938674 -0.344805
vn 0.000000 0.938674 -0.344805
vn 0.000000 0.938674 -0.344805
vn -0.999999 0.000602 -0.001104
vn -0.999999 0.000683 -0.001012
vn 0.999999 0.000682 -0.001012
vn 0.999999 0.000600 -0.001103
vn -0.000005 -0.956541 0.291599
vn -0.000005 -0.956541 0.291599
vn 0.000000 0.938674 -0.344806
vn 0.000000 0.938674 -0.344806
vn 1.000000 0.000000 -0.000000
vn 1.000000 0.000000 -0.000000
vn 1.000000 0.000000 -0.000000
vn 1.000000 0.000000 -0.000000
vn 0.000000 0.938674 0.344806
vn 0.000000 0.938674 0.344806
vn 0.000000 0.938674 0.344806
vn 0.000000 0.938674 0.344806
vn -1.000000 0.000000 0.000000
vn -1.000000 0.000000 0.000000
vn -1.000000 0.000000 0.000000
vn -1.000000 0.000000 0.000000
vn 0.000000 -0.938674 -0.344805
vn 0.000000 -0.938674 -0.344805
vn 0.000000 -0.938674 -0.344805
vn 0.000000 -0.938674 -0.344805
vn -0.999990 -0.002243 0.003794
vn -0.999990 -0.002243 0.003794
vn -0.999990 -0.002243 0.003794
vn -0.999990 -0.002243 0.003794
vn -0.000092 -0.933527 -0.358506
vn -0.000092 -0.933527 -0.358506
vn -0.000092 -0.933528 -0.358506
vn -0.000092 -0.933528 -0.358506
vn 0.999990 -0.002244 0.003792
vn 0.999990 -0.002244 0.003792
vn 0.999990 -0.002244 0.003792
vn 0.999990 -0.002244 0.003792
vn 0.000000 0.880928 0.473250
vn 0.000000 0.880928 0.473250
vn 0.000000 0.880928 0.473250
vn 0.000000 0.880928 0.473250
vn -1.000000 0.000000 0.000000
vn -1.000000 0.000000 0.000000
vn -1.000000 0.000000 0.000000
vn -1.000000 0.000000 0.000000
vn 0.000000 0.938725 0.344667
vn 0.000000 0.938725 0.344667
vn 0.000000 0.938725 0.344667
vn 0.000000 0.938725 0.344667
vn 1.000000 0.000000 0.000000
vn 1.000000 0.000000 0.000000
vn 1.000000 0.000000 0.000000
vn 1.000000 0.000000 0.000000
vn 0.000000 -0.937714 -0.347408
vn 0.000000 -0.937714 -0.347408
vn 0.000000 -0.937714 -0.347408
vn 0.000000 -0.937714 -0.347408
vn 0.000003 -0.000025 1.000000
vn 0.000003 -0.000025 1.000000
vn 0.000003 -0.000025 1.000000
vn 0.000003 -0.000025 1.000000
vn -0.000001 1.000000 -0.000004
vn -0.000001 1.000000 -0.000004
vn -0.000001 1.000000 -0.000004
vn -0.000001 1.000000 -0.000004
vn 0.000008 0.000002 1.000000
vn 0.000008 0.000002 1.000000
vn 0.000008 0.000002 1.000000
vn 0.000008 0.000002 1.000000
vn -0.000003 -0.000004 1.000000
vn -0.000003 -0.000004 1.000000
vn -0.000003 -0.000004 1.000000
vn -0.000003 -0.000004 1.000000
vn -0.000000 -1.000000 -0.000005
vn -0.000000 -1.000000 -0.000005
vn -0.000000 -1.000000 -0.000005
vn -0.000000 -1.000000 -0.000005
vn 0.000000 0.000025 1.000000
vn 0.000000 0.000025 1.000000
vn 0.000000 0.000025 1.000000
vn 0.000000 0.000025 1.000000
vn -0.000000 -1.000000 0.000003
vn -0.000000 -1.000000 0.000003
vn -0.000000 -1.000000 0.000003
vn -0.000000 -1.000000 0.000003
vn 0.000002 -0.000004 -1.000000
vn 0.000002 -0.000004 -1.000000
vn 0.000002 -0.000004 -1.000000
vn 0.000002 -0.000004 -1.000000
vn 0.000002 0.000027 -1.000000
vn 0.000002 0.000027 -1.000000
vn 0.000002 0.000027 -1.000000
vn 0.000002 0.000027 -1.000000
vn -0.000004 -1.000000 0.000003
vn -0.000004 -1.000000 0.000003
vn -0.000004 -1.000000 0.000003
vn -0.000004 -1.000000 0.000003
vn -0.000005 1.000000 -0.000004
vn -0.000005 1.000000 -0.000004
vn -0.000005 1.000000 -0.000004
vn -0.000005 1.000000 -0.000004
vn -0.000002 -0.000026 -1.000000
vn -0.000002 -0.000026 -1.000000
vn -0.000002 -0.000026 -1.000000
vn -0.000002 -0.000026 -1.000000
vn -0.000003 0.000003 -1.000000
vn -0.000003 0.000003 -1.000000
vn -0.000003 0.000003 -1.000000
vn -0.000003 0.000003 -1.000000
vn -0.000000 1.000000 0.000004
vn -0.000000 1.000000 0.000004
vn -0.000000 1.000000 0.000004
vn -0.000000 1.000000 0.000004
vn 0.000003 -0.000009 1.000000
vn 0.000003 -0.000009 1.000000
vn 0.000003 -0.000009 1.000000
vn 0.000003 -0.000009 1.000000
vn -0.000005 -1.000000 -0.000004
vn -0.000005 -1.000000 -0.000004
vn -0.000005 -1.000000 -0.000004
vn -0.000005 -1.000000 -0.000004
vn -0.000000 -0.000029 -1.000000
vn -0.000000 -0.000029 -1.000000
vn -0.000000 -0.000029 -1.000000
vn -0.000000 -0.000029 -1.000000
vn -0.000004 1.000000 0.000003
vn -0.000004 1.000000 0.000003
vn -0.000004 1.000000 0.000003
vn -0.000004 1.000000 0.000003
vn -1.000000 0.000000 -0.000000
vn -1.000000 0.000000 -0.000000
vn -1.000000 0.000000 -0.000000
vn -1.000000 0.000000 -0.000000
vn 0.000007 0.000000 1.000000
vn 0.000007 0.000000 1.000000
vn 0.000007 0.000000 1.000000
vn 0.000007 0.000000 1.000000
vn 1.000000 -0.000000 0.000000
vn 1.000000 -0.000000 0.000000
vn 1.000000 -0.000000 0.000000
vn 1.000000 -0.000000 0.000000
vn -1.000000 -0.000000 0.000000
vn -1.000000 -0.000000 0.000000
vn -1.000000 -0.000000 0.000000
vn -1.000000 -0.000000 0.000000
vn 1.000000 -0.000000 0.000000
vn 1.000000 -0.000000 0.000000
vn 1.000000 -0.000000 0.000000
vn 1.000000 -0.000000 0.000000
vn -1.000000 0.000000 -0.000000
vn -1.000000 0.000000 -0.000000
vn -1.000000 0.000000 -0.000000
vn -1.000000 0.000000 -0.000000
vn 1.000000 -0.000000 0.000000
vn 1.000000 -0.000000 0.000000
vn 1.000000 -0.000000 0.000000
vn 1.000000 -0.000000 0.000000
vn -0.000002 0.000000 -1.000000
vn -0.000002 0.000000 -1.000000
vn -0.000002 0.000000 -1.000000
vn -0.000002 0.000000 -1.000000
vn -1.000000 0.000000 0.000000
vn -1.000000 0.000000 0.000000
vn -1.000000 0.000000 0.000000
vn -1.000000 0.000000 0.000000
vn 1.000000 0.000000 0.000000
vn 1.000000 0.000000 0.000000
vn 1.000000 0.000000 0.000000
vn 1.000000 0.000000 0.000000
vn -0.999987 -0.004991 0.000000
vn -0.999987 -0.004991 0.000000
vn -0.999987 -0.004991 0.000000
vn -0.999987 -0.004991 0.000000
vn 0.999987 0.004991 -0.000000
vn 0.999987 0.004991 -0.000000
vn 0.999987 0.004991 -0.000000
vn 0.999987 0.004991 -0.000000
vn 0.000005 -1.000000 0.000000
vn 0.000005 -1.000000 0.000000
vn 0.000005 -1.000000 0.000000
vn 0.000005 -1.000000 0.000000
vn -1.000000 0.000000 0.000000
vn -1.000000 0.000000 0.000000
vn -1.000000 0.000000 0.000000
vn -1.000000 0.000000 0.000000
vn 1.000000 0.000000 0.000000
vn 1.000000 0.000000 0.000000
vn 1.000000 0.000000 0.000000
vn 1.000000 0.000000 0.000000
vn -1.000000 0.000000 0.000000
vn -1.000000 0.000000 0.000000
vn -1.000000 0.000000 0.000000
vn -1.000000 0.000000 0.000000
vn 1.000000 0.000000 0.000000
vn 1.000000 0.000000 0.000000
vn 1.000000 0.000000 0.000000
vn 1.000000 0.000000 0.000000
vn -1.000000 0.000000 0.000000
vn -1.000000 0.000000 0.000000
vn -1.000000 0.000000 0.000000
vn -1.000000 0.000000 0.000000
vn 1.000000 0.000000 -0.000000
vn 1.000000 0.000000 -0.000000
vn 1.000000 0.000000 -0.000000
vn 1.000000 0.000000 -0.000000
vn -1.000000 0.000000 0.000000
vn -1.000000 0.000000 0.000000
vn -1.000000 0.000000 0.000000
vn -1.000000 0.000000 0.000000
vn 1.000000 0.000000 0.000000
vn 1.000000 0.000000 0.000000
vn 1.000000 0.000000 0.000000
vn 1.000000 0.000000 0.000000
vn -1.000000 0.000000 0.000000
vn -1.000000 0.000000 0.000000
vn -1.000000 0.000000 0.000000
vn -1.000000 0.000000 0.000000
vn -0.000001 1.000000 -0.000000
vn -0.000001 1.000000 -0.000000
vn -0.000001 1.000000 -0.000000
vn -0.000001 1.000000 -0.000000
vn 1.000000 0.000000 0.000000
vn 1.000000 0.000000 0.000000
vn 1.000000 0.000000 0.000000
vn 1.000000 0.000000 0.000000
vn -1.000000 0.000000 -0.000000
vn -1.000000 0.000000 -0.000000
vn -1.000000 0.000000 -0.000000
vn -1.000000 0.000000 -0.000000
vn 1.000000 0.000000 0.000000
vn 1.000000 0.000000 0.000000
vn 1.000000 0.000000 0.000000
vn 1.000000 0.000000 0.000000
vn -1.000000 0.000000 0.000000
vn -1.000000 0.000000 0.000000
vn -1.000000 0.000000 0.000000
vn -1.000000 0.000000 0.000000
vn 1.000000 0.000000 0.000000
vn 1.000000 0.000000 0.000000
vn 1.000000 0.000000 0.000000
vn 1.000000 0.000000 0.000000
vn -0.999998 -0.002187 0.000000
vn -0.999998 -0.002187 0.000000
vn -0.999998 -0.002187 0.000000
vn -0.999998 -0.002187 0.000000
vn 0.000005 -1.000000 0.000000
vn 0.000005 -1.000000 0.000000
vn 0.000005 -1.000000 0.000000
vn 0.000005 -1.000000 0.000000
vn 0.999998 0.002187 0.000000
vn 0.999998 0.002187 0.000000
vn 0.999998 0.002187 0.000000
vn 0.999998 0.002187 0.000000
vn -1.000000 0.000000 0.000000
vn -1.000000 0.000000 0.000000
vn -1.000000 0.000000 0.000000
vn -1.000000 0.000000 0.000000
vn 1.000000 -0.000000 0.000000
vn 1.000000 -0.000000 0.000000
vn 1.000000 -0.000000 0.000000
vn 1.000000 -0.000000 0.000000
vn -1.000000 0.000000 0.000000
vn -1.000000 0.000000 0.000000
vn -1.000000 0.000000 0.000000
vn -1.000000 0.000000 0.000000
vn 1.000000 0.000001 -0.000000
vn 1.000000 0.000001 -0.000000
vn 1.000000 0.000001 -0.000000
vn 1.000000 0.000001 -0.000000
vn 1.000000 0.000000 0.000000
vn 1.000000 0.000000 0.000000
vn 1.000000 0.000000 0.000000
vn 1.000000 0.000000 0.000000
vn 0.000000 1.000000 0.000000
vn 0.000000 1.000000 0.000000
vn 0.000000 1.000000 0.000000
vn 0.000000 1.000000 0.000000
vn -1.000000 0.000000 0.000000
vn -1.000000 0.000000 0.000000
vn -1.000000 0.000000 0.000000
vn -1.000000 0.000000 0.000000
vn -0.999998 0.000000 0.002155
vn -0.999998 0.000000 0.002155
vn -0.999998 0.000000 0.002155
vn -0.999998 0.000000 0.002155
vn 0.999998 -0.000000 -0.002155
vn 0.999998 -0.000000 -0.002155
vn 0.999998 -0.000000 -0.002155
vn 0.999998 -0.000000 -0.002155
vn -0.999988 0.000000 -0.004990
vn -0.999988 0.000000 -0.004990
vn -0.999988 0.000000 -0.004990
vn -0.999988 0.000000 -0.004990
vn 0.999988 -0.000000 0.004991
vn 0.999988 -0.000000 0.004991
vn 0.999988 -0.000000 0.004991
vn 0.999988 -0.000000 0.004991
vn -0.999984 0.000000 0.005726
vn -0.999984 0.000000 0.005726
vn -0.999984 0.000000 0.005726
vn -0.999984 0.000000 0.005726
vn 0.999984 0.000000 -0.005726
vn 0.999984 0.000000 -0.005726
vn 0.999984 0.000000 -0.005726
vn 0.999984 0.000000 -0.005726
vn -0.999987 -0.000000 -0.005123
vn -0.999987 -0.000000 -0.005123
vn -0.999987 -0.000000 -0.005123
vn -0.999987 -0.000000 -0.005123
vn 0.999987 -0.000000 0.005121
vn 0.999987 -0.000000 0.005121
vn 0.999987 -0.000000 0.005121
vn 0.999987 -0.000000 0.005121
vn -1.000000 0.000000 0.000000
vn -1.000000 0.000000 0.000000
vn -1.000000 0.000000 0.000000
vn -1.000000 0.000000 0.000000
vn 0.000006 0.000000 -1.000000
vn 0.000006 0.000000 -1.000000
vn 0.000006 0.000000 -1.000000
vn 0.000006 0.000000 -1.000000
vn 1.000000 0.000000 0.000000
vn 1.000000 0.000000 0.000000
vn 1.000000 0.000000 0.000000
vn 1.000000 0.000000 0.000000
vn 1.000000 0.000000 -0.000000
vn 1.000000 0.000000 -0.000000
vn 1.000000 0.000000 -0.000000
vn 1.000000 0.000000 -0.000000
vn -0.000006 0.000000 1.000000
vn -0.000006 0.000000 1.000000
vn -0.000006 0.000000 1.000000
vn -0.000006 0.000000 1.000000
vn -1.000000 0.000000 -0.000000
vn -1.000000 0.000000 -0.000000
vn -1.000000 0.000000 -0.000000
vn -1.000000 0.000000 -0.000000
s off
g pCube1
usemtl initialShadingGroup
f 1/197/1 2/170/2 4/176/3 3/4/4
s 1
f 3/4/5 4/176/6 28/169/7 25/6/8
s off
f 5/185/9 6/172/10 8/175/11 7/10/12
f 26/190/13 27/195/14 2/170/15 1/197/16
s 2
f 38/13/17 37/14/18 39/15/19 40/16/20
s 3
f 25/184/21 26/11/22 1/1/23 3/198/24
s off
f 9/17/25 11/188/26 12/174/27 10/167/28
f 11/188/29 36/182/30 33/166/31 12/174/32
f 13/23/33 15/187/34 16/173/35 14/168/36
f 34/196/37 35/28/38 9/17/39 10/167/40
f 41/29/41 42/30/42 43/31/43 44/32/44
f 35/191/45 36/21/46 11/18/47 9/192/48
s 3
f 7/189/49 21/186/50 22/34/51 5/7/52
s 5
f 7/10/53 8/175/54 24/171/55 21/33/56
s 2
f 45/36/57 46/37/58 47/38/59 48/39/60
s off
f 22/179/61 23/161/62 6/172/63 5/185/64
s 3
f 22/34/51 21/186/50 18/181/65 17/177/66
s 2
f 50/43/67 49/44/68 46/37/58 45/36/57
s 5
f 21/33/56 24/171/55 19/165/69 18/41/70
s 3
f 17/177/66 18/181/65 26/11/22 25/184/21
s 2
f 39/15/19 37/14/18 49/44/68 50/43/67
s 1
f 25/6/8 28/169/7 20/163/71 17/194/72
s off
f 52/47/73 51/48/74 53/49/75 54/50/76
f 15/187/77 31/178/78 30/164/79 16/173/80
f 15/24/81 13/183/82 32/180/83 31/51/84
f 29/162/85 32/53/86 13/23/87 14/168/88
f 26/11/89 18/181/90 36/21/91 35/191/92
f 18/41/93 19/165/94 33/166/95 36/182/96
f 49/44/97 37/14/98 44/32/99 43/31/100
f 27/195/101 26/190/102 35/28/103 34/196/104
f 22/34/105 17/177/106 31/51/107 32/180/108
f 17/42/109 20/193/110 30/164/111 31/178/112
f 50/43/113 45/36/114 51/48/115 52/47/116
f 23/161/117 22/179/118 32/53/119 29/162/120
f 80/55/121 79/145/122 81/57/123 82/122/124
f 56/59/125 55/144/126 57/61/127 58/132/128
f 83/63/129 80/55/130 82/122/131 84/116/132
f 85/65/133 86/135/134 87/67/135 88/121/136
f 93/69/137 94/140/138 95/71/139 96/107/140
f 89/73/141 85/65/142 88/121/143 90/120/144
f 98/75/145 97/136/146 99/77/147 100/115/148
f 66/79/149 65/157/150 67/81/151 68/112/152
f 65/157/153 69/154/154 70/84/155 67/81/156
f 101/85/157 98/75/158 100/115/159 102/113/160
f 59/87/161 56/59/162 58/132/163 60/130/164
f 71/89/165 72/156/166 73/91/167 74/127/168
f 72/156/169 75/152/170 76/94/171 73/91/172
f 61/95/173 62/159/174 63/97/175 64/125/176
f 79/145/177 89/73/178 90/120/179 81/57/180
f 94/140/181 101/85/182 102/113/183 95/71/184
f 69/154/185 71/89/186 74/127/187 70/84/188
f 62/159/189 59/87/190 60/130/191 63/97/192
f 28/5/193 4/3/194 55/60/195 56/160/196
f 83/63/197 84/116/198 91/99/199 92/143/200
f 40/16/201 39/15/202 58/62/203 57/118/204
f 20/46/205 28/5/206 56/160/207 59/158/208
f 39/15/209 50/43/210 60/88/211 58/62/212
f 16/25/213 30/52/214 62/96/215 61/153/216
f 52/47/217 54/50/218 64/98/219 63/131/220
f 76/94/221 75/152/222 77/150/223 78/151/224
f 30/52/225 20/46/226 59/158/227 62/96/228
f 50/43/229 52/47/230 63/131/231 60/88/232
f 8/9/233 6/8/234 65/80/235 66/138/236
f 48/39/237 47/38/238 68/82/239 67/129/240
f 99/77/241 97/136/242 103/103/243 104/111/244
f 6/8/245 23/40/246 69/83/247 65/80/248
f 45/36/249 48/39/250 67/129/251 70/126/252
f 29/54/253 14/26/254 72/90/255 71/155/256
f 53/49/257 51/48/258 74/92/259 73/128/260
f 14/26/261 16/25/262 75/93/263 72/90/264
f 54/50/265 53/49/266 73/128/267 76/123/268
f 23/40/269 29/54/270 71/155/271 69/83/272
f 51/48/273 45/36/274 70/126/275 74/92/276
f 16/25/277 61/153/278 77/149/279 75/93/280
f 61/95/281 64/125/282 78/124/283 77/101/284
f 64/98/285 54/50/286 76/123/287 78/102/288
f 2/2/289 27/12/290 79/56/291 80/148/292
f 37/14/293 38/13/294 82/58/295 81/119/296
f 4/3/297 2/2/298 80/148/299 83/142/300
f 38/13/301 40/16/302 84/64/303 82/58/304
f 10/20/305 12/19/306 86/66/307 85/147/308
f 93/69/309 96/107/310 105/105/311 106/134/312
f 42/30/313 41/29/314 88/68/315 87/109/316
f 34/27/317 10/20/318 85/147/319 89/146/320
f 41/29/321 44/32/322 90/74/323 88/68/324
f 27/12/325 34/27/326 89/146/327 79/56/328
f 44/32/329 37/14/330 81/119/331 90/74/332
f 40/16/333 57/118/334 91/117/335 84/64/336
f 57/61/337 55/144/338 92/143/339 91/99/340
f 55/60/341 4/3/342 83/142/343 92/100/344
f 12/19/345 33/22/346 94/70/347 93/133/348
f 43/31/349 42/30/350 96/72/351 95/114/352
f 24/35/353 8/9/354 97/76/355 98/141/356
f 47/38/357 46/37/358 100/78/359 99/110/360
f 19/45/361 24/35/362 98/141/363 101/139/364
f 46/37/365 49/44/366 102/86/367 100/78/368
f 33/22/369 19/45/370 101/139/371 94/70/372
f 49/44/373 43/31/374 95/114/375 102/86/376
f 8/9/377 66/138/378 103/137/379 97/76/380
f 66/79/381 68/112/382 104/111/383 103/103/384
f 68/82/385 47/38/386 99/110/387 104/104/388
f 42/30/389 87/109/390 105/108/391 96/72/392
f 87/67/393 86/135/394 106/134/395 105/105/396
f 86/66/397 12/19/398 93/133/399 106/106/400
