# This file uses centimeters as units for non-parametric coordinates.

mtllib door2.mtl
g default
v 212.319651 0.500002 -48.011577
v 231.962290 0.500002 -48.011577
v 212.319651 32.607445 -48.011577
v 231.962290 32.607445 -48.011577
v 212.319651 32.607445 -50.355621
v 231.962290 32.607445 -50.355621
v 212.319651 0.500002 -50.355621
v 231.962290 0.500002 -50.355621
v 214.283915 0.500002 -48.011577
v 214.283915 32.607445 -48.011577
v 214.283915 32.607445 -50.355621
v 214.283915 0.500002 -50.355621
v 230.194453 0.500002 -48.011577
v 230.194453 32.607445 -48.011577
v 230.194453 32.607445 -50.355621
v 230.194453 0.500002 -50.355621
v 212.319651 3.710747 -48.011577
v 212.319651 3.710747 -50.355621
v 214.283915 3.710747 -50.355621
v 230.194453 3.710747 -50.355621
v 231.962290 3.710747 -50.355621
v 231.962290 3.710747 -48.011577
v 230.194453 3.710747 -48.011577
v 214.283915 3.710747 -48.011577
v 212.319651 29.717774 -50.355621
v 212.319651 29.717774 -48.011577
v 214.283915 29.717774 -48.011577
v 230.194453 29.717774 -48.011577
v 231.962290 29.717774 -48.011577
v 231.962290 29.717774 -50.355621
v 230.194453 29.717774 -50.355621
v 214.283915 29.717774 -50.355621
v 214.283915 29.717774 -48.947776
v 230.194453 29.717774 -48.947776
v 214.283915 3.710747 -48.947776
v 230.194453 3.710747 -48.947776
vt 0.271710 0.684139
vt 0.264852 0.665316
vt 0.671429 0.690608
vt 0.405074 0.048987
vt 0.383804 0.991817
vt 0.449084 0.341086
vt 0.222999 0.003714
vt 0.203312 0.000004
vt 0.260457 0.723090
vt 0.168421 0.293331
vt 0.162357 0.325511
vt 0.249248 0.692322
vt 0.602068 0.000007
vt 0.339538 0.358900
vt 0.345603 0.326720
vt 0.604740 0.032644
vt 0.616781 0.000010
vt 0.209305 0.512849
vt 0.610813 0.327847
vt 0.382462 0.033764
vt 0.327884 0.323381
vt 0.321820 0.355561
vt 0.628783 0.326376
vt 0.400180 0.037103
vt 0.197854 0.028965
vt 0.426713 0.313347
vt 0.217541 0.032675
vt 0.377004 0.062726
vt 0.394722 0.066065
vt 0.101128 0.215922
vt 0.637705 0.264427
vt 0.650505 0.426191
vt 0.806330 0.264577
vt 0.640987 0.426945
vt 0.661911 0.691362
vt 0.607262 0.000763
vt 0.674712 0.853126
vt 0.787410 0.000009
vt 0.628186 0.265180
vt 0.625553 0.011584
vt 0.586770 0.034115
vt 0.684230 0.852373
vt 0.644473 0.276152
vt 0.446680 0.311712
vt 0.608409 0.298474
vt 0.078665 0.224105
vt 0.169462 0.473324
vt 0.626379 0.297003
vt 0.091039 0.188231
vt 0.373716 0.964125
vt 0.022462 -0.000000
vt 0.429117 0.342720
vt 0.351254 0.972309
vt 0.148734 0.289621
vt 0.425041 0.047353
vt 0.191924 0.465140
vt 0.180671 0.504092
vt 0.142670 0.321801
vt 0.282920 0.714907
vt 0.186843 0.521033
vt 0.062405 0.179473
vt 0.068577 0.196414
vt 0.084867 0.171290
vt 0.584098 0.001478
vt 0.203133 0.495908
vt 0.242390 0.673499
vt 0.006858 0.027007
vt 0.029320 0.018823
vt 0.422369 0.014716
vt 0.000000 0.008184
vt 0.361342 1.000000
vt 0.402403 0.016350
vn 0.000000 0.000000 1.000000
vn 0.000000 0.000000 1.000000
vn 0.000000 0.000000 1.000000
vn 0.000000 0.000000 1.000000
vn 0.000000 1.000000 0.000000
vn 0.000000 1.000000 0.000000
vn 0.000000 1.000000 0.000000
vn 0.000000 1.000000 0.000000
vn 0.000000 0.000000 -1.000000
vn 0.000000 0.000000 -1.000000
vn 0.000000 0.000000 -1.000000
vn 0.000000 0.000000 -1.000000
vn 0.000000 -1.000000 0.000000
vn 0.000000 -1.000000 0.000000
vn 0.000000 -1.000000 0.000000
vn 0.000000 -1.000000 0.000000
vn 1.000000 0.000000 0.000000
vn 1.000000 0.000000 0.000000
vn 1.000000 0.000000 0.000000
vn 1.000000 0.000000 0.000000
vn -1.000000 0.000000 0.000000
vn -1.000000 0.000000 0.000000
vn -1.000000 0.000000 0.000000
vn -1.000000 0.000000 0.000000
vn 0.000000 0.000000 1.000000
vn 0.000000 0.000000 1.000000
vn 0.000000 1.000000 0.000000
vn 0.000000 1.000000 0.000000
vn 0.000000 0.000000 -1.000000
vn 0.000000 0.000000 -1.000000
vn 0.000000 -1.000000 0.000000
vn 0.000000 -1.000000 0.000000
vn 0.000000 0.000000 1.000000
vn 0.000000 0.000000 1.000000
vn 0.000000 1.000000 0.000000
vn 0.000000 1.000000 0.000000
vn 0.000000 0.000000 -1.000000
vn 0.000000 0.000000 -1.000000
vn 0.000000 -1.000000 0.000000
vn 0.000000 -1.000000 0.000000
vn -1.000000 0.000000 0.000000
vn -1.000000 0.000000 0.000000
vn -1.000000 0.000000 0.000000
vn -1.000000 0.000000 0.000000
vn 0.000000 0.000000 -1.000000
vn 0.000000 0.000000 -1.000000
vn 0.000000 0.000000 -1.000000
vn 0.000000 0.000000 -1.000000
vn 0.000000 0.000000 -1.000000
vn 0.000000 0.000000 -1.000000
vn 0.000000 0.000000 -1.000000
vn 0.000000 0.000000 -1.000000
vn 1.000000 0.000000 0.000000
vn 1.000000 0.000000 0.000000
vn 1.000000 0.000000 0.000000
vn 1.000000 0.000000 0.000000
vn 0.000000 0.000000 1.000000
vn 0.000000 0.000000 1.000000
vn 0.000000 0.000000 1.000000
vn 0.000000 0.000000 1.000000
vn 0.000000 0.000000 1.000000
vn 0.000000 0.000000 1.000000
vn 0.000000 0.000000 1.000000
vn 0.000000 0.000000 1.000000
vn 0.000000 0.000000 1.000000
vn 0.000000 0.000000 1.000000
vn 0.000000 0.000000 1.000000
vn 0.000000 0.000000 1.000000
vn 0.000000 -1.000000 0.000000
vn 0.000000 -1.000000 0.000000
vn 0.000000 -1.000000 0.000000
vn 0.000000 -1.000000 0.000000
vn 1.000000 0.000000 0.000000
vn 1.000000 0.000000 0.000000
vn 1.000000 0.000000 0.000000
vn 1.000000 0.000000 0.000000
vn 0.000000 1.000000 0.000000
vn 0.000000 1.000000 0.000000
vn 0.000000 1.000000 0.000000
vn 0.000000 1.000000 0.000000
vn -1.000000 0.000000 0.000000
vn -1.000000 0.000000 0.000000
vn -1.000000 0.000000 0.000000
vn -1.000000 0.000000 0.000000
s 1
g pCube2
usemtl standardSurface13SG
f 1/72/1 9/69/2 24/55/3 17/4/4
s 2
f 3/51/5 10/68/6 11/67/7 5/70/8
s 3
f 18/54/9 19/10/10 12/11/11 7/58/12
s 4
f 7/12/13 12/66/14 9/2/15 1/1/16
s 5
f 2/65/17 8/57/18 21/47/19 22/56/20
s 6
f 7/12/21 1/1/22 17/59/23 18/9/24
s 1
f 23/41/25 24/55/3 9/69/2 13/64/26
s 2
f 11/67/7 10/68/6 14/63/27 15/61/28
s 3
f 12/11/11 19/10/10 20/21/29 16/22/30
s 4
f 9/2/15 12/66/14 16/60/31 13/18/32
s 1
f 22/16/33 23/41/25 13/64/26 2/13/34
s 2
f 15/61/28 14/63/27 4/49/35 6/62/36
s 3
f 16/22/30 20/21/29 21/15/37 8/14/38
s 4
f 13/18/32 16/60/31 8/57/39 2/65/40
s 6
f 25/53/41 26/50/42 3/5/43 5/71/44
s 3
f 5/8/45 11/7/46 32/27/47 25/25/48
f 31/28/49 32/27/47 11/7/46 15/20/50
f 30/29/51 31/28/49 15/20/50 6/24/52
s 5
f 29/30/53 30/46/54 6/62/55 4/49/56
s 1
f 14/19/57 28/45/58 29/48/59 4/23/60
f 10/6/61 27/44/62 28/45/58 14/19/57
f 26/26/63 27/44/62 10/6/61 3/52/64
s 6
f 18/9/24 17/59/23 26/50/42 25/53/41
s 1
f 17/4/4 24/55/3 27/44/62 26/26/63
s off
f 34/33/65 33/43/66 35/40/67 36/38/68
s 1
f 29/48/59 28/45/58 23/41/25 22/16/33
s 5
f 22/56/20 21/47/19 30/46/54 29/30/53
s 3
f 21/15/37 20/21/29 31/28/49 30/29/51
f 20/21/29 19/10/10 32/27/47 31/28/49
f 25/25/48 32/27/47 19/10/10 18/54/9
s off
f 28/31/69 27/32/70 33/34/71 34/39/72
f 27/32/73 24/3/74 35/35/75 33/34/76
f 24/3/77 23/42/78 36/37/79 35/35/80
f 23/17/81 28/31/82 34/39/83 36/36/84
